PathFileType	4	(X/Y/Z)	RBDS019static.trc
DataRate	CameraRate	NumFrames	NumMarkers	Units	OrigDataRate	OrigDataStartFrame	OrigNumFrames
150.000000	150.000000	4	48	mm	150.000000	75	150
Frame#	Time	L.Ankle			L.Ankle.Medial			L.ASIS			L.GTR			L.Heel.Bottom			L.Heel.Lateral			L.Heel.Top			L.HF			L.Iliac.Crest			L.Knee			L.Knee.Medial			L.MT1			L.MT2			L.MT5			L.PSIS			L.Shank.Bottom.Lateral			L.Shank.Bottom.Medial			L.Shank.Top.Lateral			L.Shank.Top.Medial			L.Thigh.Bottom.Lateral			L.Thigh.Bottom.Medial			L.Thigh.Top.Lateral			L.Thigh.Top.Medial			L.TT			R.Ankle			R.Ankle.Medial			R.ASIS			R.GTR			R.Heel.Bottom			R.Heel.Lateral			R.Heel.Top			R.HF			R.Iliac.Crest			R.Knee			R.Knee.Medial			R.MT1			R.MT2			R.MT5			R.PSIS			R.Shank.Bottom.Lateral			R.Shank.Bottom.Medial			R.Shank.Top.Lateral			R.Shank.Top.Medial			R.Thigh.Bottom.Lateral			R.Thigh.Bottom.Medial			R.Thigh.Top.Lateral			R.Thigh.Top.Medial			R.TT			
		X1	Y1	Z1	X2	Y2	Z2	X3	Y3	Z3	X4	Y4	Z4	X5	Y5	Z5	X6	Y6	Z6	X7	Y7	Z7	X8	Y8	Z8	X9	Y9	Z9	X10	Y10	Z10	X11	Y11	Z11	X12	Y12	Z12	X13	Y13	Z13	X14	Y14	Z14	X15	Y15	Z15	X16	Y16	Z16	X17	Y17	Z17	X18	Y18	Z18	X19	Y19	Z19	X20	Y20	Z20	X21	Y21	Z21	X22	Y22	Z22	X23	Y23	Z23	X24	Y24	Z24	X25	Y25	Z25	X26	Y26	Z26	X27	Y27	Z27	X28	Y28	Z28	X29	Y29	Z29	X30	Y30	Z30	X31	Y31	Z31	X32	Y32	Z32	X33	Y33	Z33	X34	Y34	Z34	X35	Y35	Z35	X36	Y36	Z36	X37	Y37	Z37	X38	Y38	Z38	X39	Y39	Z39	X40	Y40	Z40	X41	Y41	Z41	X42	Y42	Z42	X43	Y43	Z43	X44	Y44	Z44	X45	Y45	Z45	X46	Y46	Z46	X47	Y47	Z47	X48	Y48	Z48	

76	0.5	710.4256591796875	94.55913543701172	1046.677124023438	717.8345947265625	101.8846893310547	1126.74609375	831.975830078125	971.1771240234375	1113.802978515625	768.99658203125	890.971435546875	1051.167114257813	635.22802734375	36.36747360229492	1081.826049804688	666.7843017578125	56.3663215637207	1040.564331054688	643.6723022460938	84.29065704345703	1083.020751953125	720.2927856445313	441.8807067871094	1036.508422851563	772.7731323242188	1024.950439453125	1072.409912109375	724.982666015625	500.484375	1043.259521484375	706.3690795898438	481.1629028320313	1165.7041015625	836.6502075195313	54.20222854614258	1127.604614257813	845.7938842773438	67.43855285644531	1084.467529296875	812.5252075195313	48.31314849853516	1020.966125488281	657.0733032226563	994.703125	1166.221557617188	699.908447265625	176.7187347412109	1037.07861328125	660.9404296875	172.4409790039063	1069.906860351563	686.9244995117188	255.8185272216797	1026.155639648438	648.3157348632813	255.7468566894531	1062.2080078125	725.5540161132813	613.1360473632813	1036.141845703125	662.5975341796875	620.8947143554688	1073.647583007813	735.7850952148438	722.4092407226563	1033.238159179688	676.3268432617188	729.3724975585938	1070.124755859375	769.6070556640625	425.9587097167969	1090.009155273438	706.2907104492188	98.80397033691406	1406.822875976563	723.6672973632813	109.3428268432617	1327.540283203125	814.8118286132813	972.7965698242188	1350.128662109375	743.1065063476563	898.4835205078125	1400.958129882813	634.562255859375	40.00296401977539	1368.167602539063	661.8994140625	57.31375885009766	1407.311279296875	644.1209716796875	84.94606781005859	1365.892822265625	714.98486328125	451.3162536621094	1404.355834960938	757.6470336914063	1036.2763671875	1367.503051757813	718.0335693359375	511.7117614746094	1397.063842773438	722.427490234375	484.8209228515625	1274.209838867188	832.3634033203125	58.74314117431641	1328.457397460938	846.5811157226563	69.9224853515625	1370.993041992188	805.703125	47.60877990722656	1434.529663085938	653.2962646484375	1003.882019042969	1267.832885742188	698.0504760742188	170.9841461181641	1411.807861328125	659.1417846679688	168.6373138427734	1371.974975585938	683.7060546875	250.5846557617188	1419.794677734375	647.2791137695313	247.802734375	1379.617065429688	706.4520263671875	607.3248291015625	1404.509521484375	655.9894409179688	610.287353515625	1353.682250976563	707.8184204101563	717.6984252929688	1408.841552734375	657.160400390625	720.0513916015625	1362.93603515625	768.3087768554688	429.8219299316406	1352.47900390625	
77	0.5066666666666667	710.4249877929688	94.5633544921875	1046.664428710938	717.8280639648438	101.8838348388672	1126.7509765625	831.966796875	971.1804809570313	1113.801391601563	768.9845581054688	890.9686279296875	1051.147583007813	635.2247924804688	36.37429809570313	1081.808471679688	666.7880249023438	56.37478637695313	1040.5732421875	643.6727905273438	84.28565216064453	1083.02490234375	720.2960205078125	441.8827514648438	1036.508178710938	772.7686157226563	1024.9443359375	1072.395751953125	724.9939575195313	500.4903564453125	1043.24609375	706.3639526367188	481.1592407226563	1165.686889648438	836.649658203125	54.20450973510742	1127.612182617188	845.7913208007813	67.44489288330078	1084.464233398438	812.5274658203125	48.3147087097168	1020.961242675781	657.0641479492188	994.7094116210938	1166.197509765625	699.9115600585938	176.7197875976563	1037.07421875	660.9354248046875	172.4411010742188	1069.911010742188	686.9276733398438	255.8157348632813	1026.149536132813	648.3130493164063	255.7397918701172	1062.190063476563	725.556640625	613.1340942382813	1036.116577148438	662.6033935546875	620.8941040039063	1073.618286132813	735.7930297851563	722.3997802734375	1033.230834960938	676.3306274414063	729.3733520507813	1070.1103515625	769.6090087890625	425.9485473632813	1090.009033203125	706.3135986328125	98.98523712158203	1407.01708984375	723.650146484375	109.3583450317383	1327.53125	814.7926025390625	972.802490234375	1350.11328125	743.0838623046875	898.4757080078125	1400.939086914063	634.5671997070313	39.99726104736328	1368.16455078125	661.8942260742188	57.3131103515625	1407.323486328125	644.1174926757813	84.95602416992188	1365.90673828125	714.9737548828125	451.3229675292969	1404.347045898438	757.6146240234375	1036.267211914063	1367.475708007813	718.0299072265625	511.7213439941406	1397.04931640625	722.4188842773438	484.8222045898438	1274.199951171875	832.365478515625	58.74835586547852	1328.456787109375	846.5862426757813	69.917236328125	1370.983520507813	805.6997680664063	47.61139678955078	1434.53955078125	653.279296875	1003.883056640625	1267.820068359375	698.050048828125	170.9865570068359	1411.802612304688	659.1453247070313	168.6341094970703	1371.973510742188	683.7052612304688	250.5925445556641	1419.80078125	647.281982421875	247.8033447265625	1379.61572265625	706.4423217773438	607.3263549804688	1404.516479492188	655.9823608398438	610.2818603515625	1353.66650390625	707.802490234375	717.7025756835938	1408.840454101563	657.1409912109375	720.0405883789063	1362.921142578125	768.316162109375	429.80810546875	1352.464477539063	
78	0.5133333333333334	710.4119262695313	94.56271362304688	1046.662963867188	717.8270263671875	101.8815765380859	1126.746704101563	831.9586791992188	971.1758422851563	1113.7783203125	768.9920654296875	890.9694213867188	1051.112182617188	635.2258911132813	36.36154174804688	1081.833618164063	666.7802124023438	56.37245559692383	1040.565673828125	643.6625366210938	84.28616333007813	1083.036987304688	720.3046264648438	441.8745727539063	1036.488037109375	772.76708984375	1024.944580078125	1072.38330078125	725.001708984375	500.4874267578125	1043.24365234375	706.3635864257813	481.1552429199219	1165.676391601563	836.6510620117188	54.19775772094727	1127.611083984375	845.7913818359375	67.437255859375	1084.470947265625	812.5194702148438	48.31298065185547	1020.967346191406	657.0629272460938	994.698486328125	1166.185180664063	699.9129638671875	176.7089691162109	1037.07568359375	660.9389038085938	172.4328155517578	1069.8984375	686.9252319335938	255.8063507080078	1026.149291992188	648.310302734375	255.7509155273438	1062.196533203125	725.57275390625	613.1355590820313	1036.108032226563	662.601318359375	620.8890991210938	1073.601684570313	735.8010864257813	722.404052734375	1033.206298828125	676.3289794921875	729.3658447265625	1070.0849609375	769.6150512695313	425.955078125	1090.0009765625	706.3034057617188	98.99373626708984	1407.011474609375	723.6610717773438	109.3516464233398	1327.54296875	814.7657470703125	972.798828125	1350.103393554688	743.0576171875	898.4835815429688	1400.9296875	634.5640258789063	39.99493408203125	1368.171997070313	661.8999633789063	57.3177604675293	1407.329345703125	644.1206665039063	84.95014953613281	1365.909790039063	714.9695434570313	451.3232421875	1404.34521484375	757.5936279296875	1036.264892578125	1367.460205078125	718.0283813476563	511.7167663574219	1397.046508789063	722.4365844726563	484.8207702636719	1274.197387695313	832.3580932617188	58.74551010131836	1328.457397460938	846.5961303710938	69.92879486083984	1370.987426757813	805.7019653320313	47.60498428344727	1434.531616210938	653.264404296875	1003.886657714844	1267.79248046875	698.0510864257813	170.9858093261719	1411.80419921875	659.1431884765625	168.6372833251953	1371.976806640625	683.7075805664063	250.5935974121094	1419.79296875	647.2821044921875	247.8028717041016	1379.608276367188	706.434326171875	607.3193969726563	1404.501342773438	655.9725341796875	610.2737426757813	1353.659301757813	707.7872924804688	717.697509765625	1408.832885742188	657.129638671875	720.0335083007813	1362.908813476563	768.318359375	429.8170471191406	1352.452880859375	
79	0.52	710.4202880859375	94.5537109375	1046.663696289063	717.823974609375	101.8819198608398	1126.753295898438	831.9549560546875	971.1737670898438	1113.771240234375	768.9991455078125	890.9642333984375	1051.103149414063	635.2174072265625	36.3647346496582	1081.83203125	666.7845458984375	56.36402893066406	1040.573364257813	643.6631469726563	84.28242492675781	1083.02978515625	720.3123168945313	441.8746337890625	1036.482543945313	772.7796630859375	1024.949584960938	1072.374633789063	725.0039672851563	500.4852905273438	1043.216674804688	706.3705444335938	481.1712646484375	1165.664672851563	836.650146484375	54.2046012878418	1127.608520507813	845.7957763671875	67.44920349121094	1084.4677734375	812.5185546875	48.32637786865234	1020.956481933594	657.0631713867188	994.69775390625	1166.1474609375	699.905029296875	176.7139739990234	1037.065551757813	660.9376220703125	172.4327545166016	1069.904663085938	686.9260864257813	255.8005981445313	1026.137329101563	648.3070678710938	255.7437286376953	1062.177978515625	725.5758666992188	613.1390380859375	1036.091064453125	662.6098022460938	620.8922119140625	1073.58642578125	735.7998046875	722.4010620117188	1033.192993164063	676.3262939453125	729.3650512695313	1070.063232421875	769.6253662109375	425.9574890136719	1089.99658203125	706.3047485351563	98.99002838134766	1407.009887695313	723.6624145507813	109.3521423339844	1327.546142578125	814.7482299804688	972.8008422851563	1350.086669921875	743.0441284179688	898.4852905273438	1400.912475585938	634.5623779296875	40.00828552246094	1368.182250976563	661.90625	57.3210563659668	1407.331665039063	644.1173706054688	84.95543670654297	1365.90966796875	714.97509765625	451.3309326171875	1404.344848632813	757.566162109375	1036.257568359375	1367.450927734375	718.02734375	511.7163391113281	1397.044799804688	722.4309692382813	484.818359375	1274.190673828125	832.3624877929688	58.75259017944336	1328.447509765625	846.5905151367188	69.91510009765625	1370.990600585938	805.6951904296875	47.60531234741211	1434.535400390625	653.2432250976563	1003.880676269531	1267.76318359375	698.0447998046875	170.9943695068359	1411.801025390625	659.14794921875	168.633544921875	1371.97607421875	683.7030029296875	250.5835113525391	1419.787353515625	647.2807006835938	247.7958984375	1379.603881835938	706.4276123046875	607.3173217773438	1404.486938476563	655.9688110351563	610.2733154296875	1353.651000976563	707.7669067382813	717.7020263671875	1408.818237304688	657.1126708984375	720.0263061523438	1362.893432617188	768.3134155273438	429.81201171875	1352.446044921875	
